<svg width="301" height="201" viewBox="0 0 301 201" fill="none" xmlns="http://www.w3.org/2000/svg">
<mask id="mask0_62_4404" style="mask-type:alpha" maskUnits="userSpaceOnUse" x="0" y="0" width="301" height="201">
<rect x="0.77832" y="0.804199" width="300" height="200" fill="#877655"/>
</mask>
<g mask="url(#mask0_62_4404)">
<rect x="0.77832" y="0.804199" width="300" height="200" fill="#2D9AFC"/>
<path d="M176.862 167.775C132.43 212.207 37.7239 196.126 23.3634 204.394H-5.35791V-5.79281H298.826C305.353 -6.22798 316.842 1.64864 310.575 36.6364C310.575 36.6364 239.222 19.6694 196.476 49.6975C153.73 79.7256 221.294 123.343 176.862 167.775Z" fill="url(#paint0_linear_62_4404)"/>
<path d="M119.252 143.953L56.7144 215.904H197.927L215.411 182.954L119.252 143.953Z" fill="#006DD7"/>
<circle cx="157.778" cy="9.8042" r="1" fill="#F8D653"/>
<circle cx="175.778" cy="9.8042" r="1" fill="#F8D653"/>
<circle cx="193.778" cy="9.8042" r="1" fill="#F8D653"/>
<circle cx="211.778" cy="9.8042" r="1" fill="#F8D653"/>
<circle cx="229.778" cy="9.8042" r="1" fill="#F8D653"/>
<circle cx="247.778" cy="9.8042" r="1" fill="#F8D653"/>
<circle cx="265.778" cy="9.8042" r="1" fill="#F8D653"/>
<circle cx="283.778" cy="9.8042" r="1" fill="#F8D653"/>
<circle cx="157.778" cy="45.8042" r="1" fill="#F8D653"/>
<circle cx="175.778" cy="45.8042" r="1" fill="#F8D653"/>
<circle cx="193.778" cy="45.8042" r="1" fill="#F8D653"/>
<circle cx="211.778" cy="45.8042" r="1" fill="#F8D653"/>
<circle cx="229.778" cy="45.8042" r="1" fill="#F8D653"/>
<circle cx="247.778" cy="45.8042" r="1" fill="#F8D653"/>
<circle cx="265.778" cy="45.8042" r="1" fill="#F8D653"/>
<circle cx="157.778" cy="81.8042" r="1" fill="#F8D653"/>
<circle cx="283.778" cy="45.8042" r="1" fill="#F8D653"/>
<circle cx="175.778" cy="81.8042" r="1" fill="#F8D653"/>
<circle cx="193.778" cy="81.8042" r="1" fill="#F8D653"/>
<circle cx="211.778" cy="81.8042" r="1" fill="#F8D653"/>
<circle cx="229.778" cy="81.8042" r="1" fill="#F8D653"/>
<circle cx="247.778" cy="81.8042" r="1" fill="#F8D653"/>
<circle cx="265.778" cy="81.8042" r="1" fill="#F8D653"/>
<circle cx="283.778" cy="81.8042" r="1" fill="#F8D653"/>
<circle cx="157.778" cy="117.804" r="1" fill="#F8D653"/>
<circle cx="175.778" cy="117.804" r="1" fill="#F8D653"/>
<circle cx="193.778" cy="117.804" r="1" fill="#F8D653"/>
<circle cx="211.778" cy="117.804" r="1" fill="#F8D653"/>
<circle cx="229.778" cy="117.804" r="1" fill="#F8D653"/>
<circle cx="247.778" cy="117.804" r="1" fill="#F8D653"/>
<circle cx="265.778" cy="117.804" r="1" fill="#F8D653"/>
<circle cx="283.778" cy="117.804" r="1" fill="#F8D653"/>
<circle cx="157.778" cy="153.804" r="1" fill="#F8D653"/>
<circle cx="175.778" cy="153.804" r="1" fill="#F8D653"/>
<circle cx="193.778" cy="153.804" r="1" fill="#F8D653"/>
<circle cx="211.778" cy="153.804" r="1" fill="#F8D653"/>
<circle cx="229.778" cy="153.804" r="1" fill="#F8D653"/>
<circle cx="247.778" cy="153.804" r="1" fill="#F8D653"/>
<circle cx="265.778" cy="153.804" r="1" fill="#F8D653"/>
<circle cx="283.778" cy="153.804" r="1" fill="#F8D653"/>
<circle cx="157.778" cy="189.804" r="1" fill="#F8D653"/>
<circle cx="175.778" cy="189.804" r="1" fill="#F8D653"/>
<circle cx="193.778" cy="189.804" r="1" fill="#F8D653"/>
<circle cx="211.778" cy="189.804" r="1" fill="#F8D653"/>
<circle cx="229.778" cy="189.804" r="1" fill="#F8D653"/>
<circle cx="247.778" cy="189.804" r="1" fill="#F8D653"/>
<circle cx="265.778" cy="189.804" r="1" fill="#F8D653"/>
<circle cx="283.778" cy="189.804" r="1" fill="#F8D653"/>
<circle cx="157.778" cy="27.8042" r="1" fill="#F8D653"/>
<circle cx="175.778" cy="27.8042" r="1" fill="#F8D653"/>
<circle cx="193.778" cy="27.8042" r="1" fill="#F8D653"/>
<circle cx="211.778" cy="27.8042" r="1" fill="#F8D653"/>
<circle cx="229.778" cy="27.8042" r="1" fill="#F8D653"/>
<circle cx="247.778" cy="27.8042" r="1" fill="#F8D653"/>
<circle cx="265.778" cy="27.8042" r="1" fill="#F8D653"/>
<circle cx="283.778" cy="27.8042" r="1" fill="#F8D653"/>
<circle cx="157.778" cy="63.8042" r="1" fill="#F8D653"/>
<circle cx="175.778" cy="63.8042" r="1" fill="#F8D653"/>
<circle cx="193.778" cy="63.8042" r="1" fill="#F8D653"/>
<circle cx="211.778" cy="63.8042" r="1" fill="#F8D653"/>
<circle cx="229.778" cy="63.8042" r="1" fill="#F8D653"/>
<circle cx="247.778" cy="63.8042" r="1" fill="#F8D653"/>
<circle cx="265.778" cy="63.8042" r="1" fill="#F8D653"/>
<circle cx="283.778" cy="63.8042" r="1" fill="#F8D653"/>
<circle cx="157.778" cy="99.8042" r="1" fill="#F8D653"/>
<circle cx="175.778" cy="99.8042" r="1" fill="#F8D653"/>
<circle cx="193.778" cy="99.8042" r="1" fill="#F8D653"/>
<circle cx="211.778" cy="99.8042" r="1" fill="#F8D653"/>
<circle cx="229.778" cy="99.8042" r="1" fill="#F8D653"/>
<circle cx="247.778" cy="99.8042" r="1" fill="#F8D653"/>
<circle cx="265.778" cy="99.8042" r="1" fill="#F8D653"/>
<circle cx="283.778" cy="99.8042" r="1" fill="#F8D653"/>
<circle cx="157.778" cy="135.804" r="1" fill="#F8D653"/>
<circle cx="175.778" cy="135.804" r="1" fill="#F8D653"/>
<circle cx="193.778" cy="135.804" r="1" fill="#F8D653"/>
<circle cx="211.778" cy="135.804" r="1" fill="#F8D653"/>
<circle cx="229.778" cy="135.804" r="1" fill="#F8D653"/>
<circle cx="247.778" cy="135.804" r="1" fill="#F8D653"/>
<circle cx="265.778" cy="135.804" r="1" fill="#F8D653"/>
<circle cx="283.778" cy="135.804" r="1" fill="#F8D653"/>
<circle cx="157.778" cy="171.804" r="1" fill="#F8D653"/>
<circle cx="175.778" cy="171.804" r="1" fill="#F8D653"/>
<circle cx="193.778" cy="171.804" r="1" fill="#F8D653"/>
<circle cx="211.778" cy="171.804" r="1" fill="#F8D653"/>
<circle cx="229.778" cy="171.804" r="1" fill="#F8D653"/>
<circle cx="247.778" cy="171.804" r="1" fill="#F8D653"/>
<circle cx="265.778" cy="171.804" r="1" fill="#F8D653"/>
<circle cx="283.778" cy="171.804" r="1" fill="#F8D653"/>
</g>
<defs>
<linearGradient id="paint0_linear_62_4404" x1="121.929" y1="2.04005" x2="147.387" y2="182.2" gradientUnits="userSpaceOnUse">
<stop stop-color="#2D9AFC"/>
<stop offset="1" stop-color="#007EEF"/>
</linearGradient>
</defs>
</svg>
