<svg width="33" height="33" viewBox="0 0 33 33" fill="none" xmlns="http://www.w3.org/2000/svg">
<path d="M0.109375 4.92822C0.109375 2.71908 1.90024 0.928223 4.10938 0.928223H28.1094C30.3185 0.928223 32.1094 2.71908 32.1094 4.92822V28.9282C32.1094 31.1374 30.3185 32.9282 28.1094 32.9282H4.10938C1.90024 32.9282 0.109375 31.1374 0.109375 28.9282V4.92822Z" fill="#E1F73D"/>
<path d="M3.10938 8.92822C3.10938 7.82365 4.00481 6.92822 5.10938 6.92822H21.1094C22.2139 6.92822 23.1094 7.82365 23.1094 8.92822V19.9282C23.1094 21.0328 22.2139 21.9282 21.1094 21.9282H5.10938C4.00481 21.9282 3.10938 21.0328 3.10938 19.9282V8.92822Z" fill="#E1F73D"/>
<path fill-rule="evenodd" clip-rule="evenodd" d="M25.7094 10.3282H6.50938L6.50938 23.5282H25.7094V10.3282ZM6.50938 7.92822C5.18389 7.92822 4.10938 9.00274 4.10938 10.3282V23.5282C4.10938 24.8537 5.18389 25.9282 6.50938 25.9282H25.7094C27.0349 25.9282 28.1094 24.8537 28.1094 23.5282V10.3282C28.1094 9.00274 27.0349 7.92822 25.7094 7.92822H6.50938Z" fill="#141414"/>
<path fill-rule="evenodd" clip-rule="evenodd" d="M11.056 15.6255C10.8801 15.109 10.3214 14.8279 9.80077 14.9968C9.27545 15.1673 8.98777 15.7313 9.15822 16.2567L10.1094 15.948C9.15822 16.2567 9.15845 16.2574 9.15869 16.2581L9.15918 16.2596L9.16025 16.2629L9.16271 16.2702L9.16893 16.2882C9.17367 16.3017 9.17961 16.3181 9.18687 16.3372C9.20139 16.3754 9.22119 16.4244 9.24713 16.4828C9.29897 16.5995 9.3756 16.7541 9.48395 16.9336C9.70081 17.2928 10.0455 17.7529 10.5722 18.2061C11.6427 19.1271 13.3807 19.948 16.1094 19.948C18.8381 19.948 20.5761 19.1271 21.6466 18.2061C22.1733 17.7529 22.518 17.2928 22.7349 16.9336C22.8432 16.7541 22.9198 16.5995 22.9717 16.4828C22.9976 16.4244 23.0174 16.3754 23.0319 16.3372C23.0392 16.3181 23.0451 16.3017 23.0499 16.2882L23.0561 16.2702L23.0585 16.2629L23.0596 16.2596L23.0601 16.2581C23.0604 16.2574 23.0606 16.2567 22.1094 15.948L23.0606 16.2567C23.231 15.7313 22.9434 15.1673 22.418 14.9968C21.8974 14.8279 21.3387 15.109 21.1628 15.6255C21.1628 15.6257 21.1627 15.626 21.1626 15.6262C21.1604 15.632 21.1543 15.6474 21.1438 15.671C21.1228 15.7184 21.0841 15.7982 21.0227 15.8999C20.9 16.1032 20.6871 16.3932 20.3422 16.69C19.6693 17.269 18.4073 17.948 16.1094 17.948C13.8115 17.948 12.5495 17.269 11.8766 16.69C11.5317 16.3932 11.3188 16.1032 11.1961 15.8999C11.1347 15.7982 11.096 15.7184 11.075 15.671C11.0645 15.6474 11.0584 15.632 11.0562 15.6262C11.0561 15.626 11.056 15.6257 11.056 15.6255C11.056 15.6255 11.056 15.6255 11.056 15.6255Z" fill="black"/>
</svg>
