<svg width="15" height="15" viewBox="0 0 15 15" fill="none" xmlns="http://www.w3.org/2000/svg">
<path fill-rule="evenodd" clip-rule="evenodd" d="M12.2743 1.96297C12.6649 1.57244 13.298 1.57244 13.6886 1.96297C14.0791 2.35349 14.0791 2.98665 13.6886 3.37718L9.10269 7.96304L13.6886 12.5489C14.0791 12.9394 14.0791 13.5726 13.6886 13.9631C13.298 14.3536 12.6649 14.3536 12.2743 13.9631L7.68848 9.37725L3.10277 13.963C2.71224 14.3535 2.07908 14.3535 1.68855 13.963C1.29803 13.5724 1.29803 12.9393 1.68855 12.5488L6.27426 7.96304L1.68855 3.37733C1.29803 2.98681 1.29803 2.35364 1.68855 1.96312C2.07908 1.57259 2.71224 1.57259 3.10277 1.96312L7.68848 6.54883L12.2743 1.96297Z" fill="#405166"/>
</svg>
