<svg width="301" height="201" viewBox="0 0 301 201" fill="none" xmlns="http://www.w3.org/2000/svg">
<mask id="mask0_60_5530" style="mask-type:alpha" maskUnits="userSpaceOnUse" x="0" y="0" width="301" height="201">
<rect x="0.595703" y="0.456543" width="300" height="200" fill="#877655"/>
</mask>
<g mask="url(#mask0_60_5530)">
<rect x="0.595703" y="0.456543" width="300" height="200" fill="#877655"/>
<path d="M127.621 172.062C85.8451 195.561 37.5413 195.779 23.1808 204.047H-5.54053V-6.14046H298.643C305.171 -6.57563 316.659 1.30098 310.393 36.2888C205.952 15.4006 160.259 43.4687 143.287 77.4119C126.316 111.355 169.398 148.562 127.621 172.062Z" fill="url(#paint0_linear_60_5530)"/>
<path d="M213.785 72.8425C222.14 79.1091 252.515 72.8426 266.658 68.926C247.511 79.5877 206.605 99.3445 196.161 93.078C183.106 85.245 196.161 72.8425 185.064 72.8425C173.967 72.8425 179.189 104.828 150.468 80.0229C121.747 55.2183 173.967 46.0794 190.938 55.2183C207.91 64.3571 196.161 50.6488 196.161 34.9827C196.161 19.3166 206.604 34.3299 203.993 46.0794C201.382 57.829 203.341 65.0093 213.785 72.8425Z" fill="black"/>
<path d="M218.811 180.887L184.954 83.7688L282.963 50.8022L312.365 151.484L218.811 180.887Z" fill="#F7E794"/>
<path d="M198.318 93.5693L176.935 117.626L198.318 163.958L220.593 157.721" stroke="#F7E794" stroke-width="9"/>
</g>
<defs>
<linearGradient id="paint0_linear_60_5530" x1="121.747" y1="1.69239" x2="147.204" y2="181.853" gradientUnits="userSpaceOnUse">
<stop stop-color="#F6E794"/>
<stop offset="1" stop-color="#877655"/>
</linearGradient>
</defs>
</svg>
