<svg width="301" height="201" viewBox="0 0 301 201" fill="none" xmlns="http://www.w3.org/2000/svg">
<mask id="mask0_62_4737" style="mask-type:alpha" maskUnits="userSpaceOnUse" x="0" y="0" width="301" height="201">
<rect x="0.77832" y="0.804199" width="300" height="200" fill="#877655"/>
</mask>
<g mask="url(#mask0_62_4737)">
<rect x="0.77832" y="0.804199" width="300" height="200" fill="#39D899"/>
<path d="M-35.9039 120.654C8.52771 165.086 -163.689 209.049 92.3911 240.818C299.121 266.465 185.246 70.6375 133.678 -5.79279H166.569L112.608 -35.4795C112.608 -35.4795 121.368 -24.0382 133.678 -5.79279H-137.615C-144.143 -6.22796 -155.631 1.64862 -149.365 36.6364C-149.365 36.6364 -191.913 121.646 -137.615 132.995C-83.3172 144.343 -80.3356 76.2225 -35.9039 120.654Z" fill="url(#paint0_linear_62_4737)"/>
<path d="M65.2524 65.8052C65.2524 88.8343 65.2524 134.893 65.2524 134.893" stroke="#17B274" stroke-width="23" stroke-linecap="round"/>
<path d="M98.6191 109.29C76.3747 103.329 31.8858 91.4084 31.8858 91.4084" stroke="#17B274" stroke-width="23" stroke-linecap="round"/>
<circle cx="173.778" cy="27.4165" r="1" fill="#008749"/>
<circle cx="191.778" cy="27.4165" r="1" fill="#008749"/>
<circle cx="209.778" cy="27.4165" r="1" fill="#008749"/>
<circle cx="227.778" cy="27.4165" r="1" fill="#008749"/>
<circle cx="245.778" cy="27.4165" r="1" fill="#008749"/>
<circle cx="263.778" cy="27.4165" r="1" fill="#008749"/>
<circle cx="281.778" cy="27.4165" r="1" fill="#008749"/>
<circle cx="299.778" cy="27.4165" r="1" fill="#008749"/>
<circle cx="173.778" cy="63.4165" r="1" fill="#008749"/>
<circle cx="191.778" cy="63.4165" r="1" fill="#008749"/>
<circle cx="209.778" cy="63.4165" r="1" fill="#008749"/>
<circle cx="227.778" cy="63.4165" r="1" fill="#008749"/>
<circle cx="245.778" cy="63.4165" r="1" fill="#008749"/>
<circle cx="263.778" cy="63.4165" r="1" fill="#008749"/>
<circle cx="281.778" cy="63.4165" r="1" fill="#008749"/>
<circle cx="299.778" cy="63.4165" r="1" fill="#008749"/>
<circle cx="173.778" cy="99.4165" r="1" fill="#008749"/>
<circle cx="191.778" cy="99.4165" r="1" fill="#008749"/>
<circle cx="209.778" cy="99.4165" r="1" fill="#008749"/>
<circle cx="227.778" cy="99.4165" r="1" fill="#008749"/>
<circle cx="245.778" cy="99.4165" r="1" fill="#008749"/>
<circle cx="263.778" cy="99.4165" r="1" fill="#008749"/>
<circle cx="281.778" cy="99.4165" r="1" fill="#008749"/>
<circle cx="299.778" cy="99.4165" r="1" fill="#008749"/>
<circle cx="173.778" cy="9.4165" r="1" fill="#008749"/>
<circle cx="191.778" cy="9.4165" r="1" fill="#008749"/>
<circle cx="209.778" cy="9.4165" r="1" fill="#008749"/>
<circle cx="227.778" cy="9.4165" r="1" fill="#008749"/>
<circle cx="245.778" cy="9.4165" r="1" fill="#008749"/>
<circle cx="263.778" cy="9.4165" r="1" fill="#008749"/>
<circle cx="281.778" cy="9.4165" r="1" fill="#008749"/>
<circle cx="299.778" cy="9.4165" r="1" fill="#008749"/>
<circle cx="173.778" cy="45.4165" r="1" fill="#008749"/>
<circle cx="191.778" cy="45.4165" r="1" fill="#008749"/>
<circle cx="209.778" cy="45.4165" r="1" fill="#008749"/>
<circle cx="227.778" cy="45.4165" r="1" fill="#008749"/>
<circle cx="245.778" cy="45.4165" r="1" fill="#008749"/>
<circle cx="263.778" cy="45.4165" r="1" fill="#008749"/>
<circle cx="281.778" cy="45.4165" r="1" fill="#008749"/>
<circle cx="299.778" cy="45.4165" r="1" fill="#008749"/>
<circle cx="173.778" cy="81.4165" r="1" fill="#008749"/>
<circle cx="191.778" cy="81.4165" r="1" fill="#008749"/>
<circle cx="209.778" cy="81.4165" r="1" fill="#008749"/>
<circle cx="227.778" cy="81.4165" r="1" fill="#008749"/>
<circle cx="245.778" cy="81.4165" r="1" fill="#008749"/>
<circle cx="263.778" cy="81.4165" r="1" fill="#008749"/>
<circle cx="281.778" cy="81.4165" r="1" fill="#008749"/>
<circle cx="299.778" cy="81.4165" r="1" fill="#008749"/>
<circle cx="173.778" cy="117.417" r="1" fill="#008749"/>
<circle cx="191.778" cy="117.417" r="1" fill="#008749"/>
<circle cx="209.778" cy="117.417" r="1" fill="#008749"/>
<circle cx="227.778" cy="117.417" r="1" fill="#008749"/>
<circle cx="245.778" cy="117.417" r="1" fill="#008749"/>
<circle cx="263.778" cy="117.417" r="1" fill="#008749"/>
<circle cx="281.778" cy="117.417" r="1" fill="#008749"/>
<circle cx="299.778" cy="117.417" r="1" fill="#008749"/>
</g>
<defs>
<linearGradient id="paint0_linear_62_4737" x1="39.2818" y1="2.04003" x2="13.8244" y2="182.2" gradientUnits="userSpaceOnUse">
<stop stop-color="#39D899"/>
<stop offset="1" stop-color="#17B174"/>
</linearGradient>
</defs>
</svg>
