<svg width="15" height="15" viewBox="0 0 15 15" fill="none" xmlns="http://www.w3.org/2000/svg">
<path fill-rule="evenodd" clip-rule="evenodd" d="M12.9354 1.62293C13.1488 1.8363 13.1488 2.18226 12.9354 2.39564L2.52308 12.808C2.3097 13.0213 1.96375 13.0213 1.75037 12.808C1.53699 12.5946 1.53699 12.2486 1.75037 12.0352L12.1627 1.62293C12.3761 1.40955 12.722 1.40955 12.9354 1.62293Z" fill="#405166" stroke="#405166" stroke-linecap="round"/>
<path fill-rule="evenodd" clip-rule="evenodd" d="M11.0516 1.96138C10.0945 1.61608 9.03849 1.41106 7.96481 1.35693C5.48491 1.23189 2.74211 1.89906 0.606619 3.69455C0.260159 3.98585 0.215442 4.50285 0.50674 4.84931C0.798039 5.19577 1.31504 5.24049 1.6615 4.94919C3.41956 3.47104 5.73025 2.88552 7.88226 2.99402C8.53735 3.02705 9.16266 3.12324 9.74152 3.27147L11.0516 1.96138ZM8.32429 4.68871C8.04683 4.59627 7.74999 4.54622 7.44147 4.54622C5.89992 4.54622 4.65024 5.79589 4.65024 7.33745C4.65024 7.64597 4.7003 7.9428 4.79273 8.22027L8.32429 4.68871ZM6.24425 9.85961L9.96363 6.14023C10.1362 6.50304 10.2327 6.90897 10.2327 7.33745C10.2327 8.879 8.98302 10.1287 7.44147 10.1287C7.01299 10.1287 6.60706 10.0321 6.24425 9.85961ZM2.54068 10.4723C2.22867 10.2772 1.92477 10.0593 1.63116 9.81789C1.28152 9.53041 0.765041 9.5808 0.47756 9.93043C0.19008 10.2801 0.240465 10.7965 0.590099 11.084C0.839597 11.2892 1.09524 11.48 1.35611 11.657C1.35875 11.6543 1.36141 11.6516 1.36409 11.6489L2.54068 10.4723ZM3.38097 12.7229L4.67039 11.4335C7.66721 12.329 10.9308 11.5854 12.9316 9.83423C13.2722 9.53611 13.79 9.57056 14.0881 9.91117C14.3863 10.2518 14.3518 10.7696 14.0112 11.0677C11.4063 13.3477 7.13224 14.1925 3.38097 12.7229ZM11.9022 4.20162L13.0787 3.02511C13.457 3.30577 13.7942 3.61977 14.0801 3.96575C14.3684 4.31469 14.3193 4.83129 13.9703 5.11961C13.6214 5.40794 13.1048 5.35879 12.8165 5.00985C12.5747 4.71727 12.2661 4.44528 11.9022 4.20162Z" fill="#405166"/>
</svg>
