<svg width="301" height="201" viewBox="0 0 301 201" fill="none" xmlns="http://www.w3.org/2000/svg">
<mask id="mask0_62_4633" style="mask-type:alpha" maskUnits="userSpaceOnUse" x="0" y="0" width="301" height="201">
<rect x="0.958984" y="0.804199" width="300" height="200" fill="#877655"/>
</mask>
<g mask="url(#mask0_62_4633)">
<rect x="0.958984" y="0.804199" width="300" height="200" fill="#9F17F2"/>
<path d="M177.042 167.775C132.611 212.207 74.3987 55.3727 23.544 79.6461C8.18877 86.9753 -0.512155 101.252 -5.17728 117.612V204.394C-5.17728 204.394 -15.9625 155.435 -5.17728 117.612V-5.79281H299.006C305.534 -6.22798 317.022 1.64864 310.756 36.6364C310.756 36.6364 239.403 19.6694 196.657 49.6975C153.911 79.7256 221.474 123.343 177.042 167.775Z" fill="url(#paint0_linear_62_4633)"/>
<path d="M151.433 111.953L183.65 183.904H230.108L247.592 150.954L151.433 111.953Z" fill="#FECC39"/>
<path d="M230.108 183.904L247.591 150.954L183.649 183.904H230.108Z" fill="#EAB825"/>
<circle cx="157.959" cy="9.8042" r="1" fill="#FF4AD7"/>
<circle cx="175.959" cy="9.8042" r="1" fill="#FF4AD7"/>
<circle cx="193.959" cy="9.8042" r="1" fill="#FF4AD7"/>
<circle cx="211.959" cy="9.8042" r="1" fill="#FF4AD7"/>
<circle cx="229.959" cy="9.8042" r="1" fill="#FF4AD7"/>
<circle cx="247.959" cy="9.8042" r="1" fill="#FF4AD7"/>
<circle cx="265.959" cy="9.8042" r="1" fill="#FF4AD7"/>
<circle cx="283.959" cy="9.8042" r="1" fill="#FF4AD7"/>
<circle cx="157.959" cy="45.8042" r="1" fill="#FF4AD7"/>
<circle cx="175.959" cy="45.8042" r="1" fill="#FF4AD7"/>
<circle cx="193.959" cy="45.8042" r="1" fill="#FF4AD7"/>
<circle cx="211.959" cy="45.8042" r="1" fill="#FF4AD7"/>
<circle cx="229.959" cy="45.8042" r="1" fill="#FF4AD7"/>
<circle cx="247.959" cy="45.8042" r="1" fill="#FF4AD7"/>
<circle cx="265.959" cy="45.8042" r="1" fill="#FF4AD7"/>
<circle cx="157.959" cy="81.8042" r="1" fill="#FF4AD7"/>
<circle cx="283.959" cy="45.8042" r="1" fill="#FF4AD7"/>
<circle cx="175.959" cy="81.8042" r="1" fill="#FF4AD7"/>
<circle cx="193.959" cy="81.8042" r="1" fill="#FF4AD7"/>
<circle cx="211.959" cy="81.8042" r="1" fill="#FF4AD7"/>
<circle cx="229.959" cy="81.8042" r="1" fill="#FF4AD7"/>
<circle cx="247.959" cy="81.8042" r="1" fill="#FF4AD7"/>
<circle cx="265.959" cy="81.8042" r="1" fill="#FF4AD7"/>
<circle cx="283.959" cy="81.8042" r="1" fill="#FF4AD7"/>
<circle cx="157.959" cy="117.804" r="1" fill="#FF4AD7"/>
<circle cx="175.959" cy="117.804" r="1" fill="#FF4AD7"/>
<circle cx="193.959" cy="117.804" r="1" fill="#FF4AD7"/>
<circle cx="211.959" cy="117.804" r="1" fill="#FF4AD7"/>
<circle cx="229.959" cy="117.804" r="1" fill="#FF4AD7"/>
<circle cx="247.959" cy="117.804" r="1" fill="#FF4AD7"/>
<circle cx="265.959" cy="117.804" r="1" fill="#FF4AD7"/>
<circle cx="283.959" cy="117.804" r="1" fill="#FF4AD7"/>
<circle cx="157.959" cy="153.804" r="1" fill="#FF4AD7"/>
<circle cx="175.959" cy="153.804" r="1" fill="#FF4AD7"/>
<circle cx="193.959" cy="153.804" r="1" fill="#FF4AD7"/>
<circle cx="211.959" cy="153.804" r="1" fill="#FF4AD7"/>
<circle cx="229.959" cy="153.804" r="1" fill="#FF4AD7"/>
<circle cx="247.959" cy="153.804" r="1" fill="#FF4AD7"/>
<circle cx="265.959" cy="153.804" r="1" fill="#FF4AD7"/>
<circle cx="283.959" cy="153.804" r="1" fill="#FF4AD7"/>
<circle cx="157.959" cy="189.804" r="1" fill="#FF4AD7"/>
<circle cx="175.959" cy="189.804" r="1" fill="#FF4AD7"/>
<circle cx="193.959" cy="189.804" r="1" fill="#FF4AD7"/>
<circle cx="211.959" cy="189.804" r="1" fill="#FF4AD7"/>
<circle cx="229.959" cy="189.804" r="1" fill="#FF4AD7"/>
<circle cx="247.959" cy="189.804" r="1" fill="#FF4AD7"/>
<circle cx="265.959" cy="189.804" r="1" fill="#FF4AD7"/>
<circle cx="283.959" cy="189.804" r="1" fill="#FF4AD7"/>
<circle cx="157.959" cy="27.8042" r="1" fill="#FF4AD7"/>
<circle cx="175.959" cy="27.8042" r="1" fill="#FF4AD7"/>
<circle cx="193.959" cy="27.8042" r="1" fill="#FF4AD7"/>
<circle cx="211.959" cy="27.8042" r="1" fill="#FF4AD7"/>
<circle cx="229.959" cy="27.8042" r="1" fill="#FF4AD7"/>
<circle cx="247.959" cy="27.8042" r="1" fill="#FF4AD7"/>
<circle cx="265.959" cy="27.8042" r="1" fill="#FF4AD7"/>
<circle cx="283.959" cy="27.8042" r="1" fill="#FF4AD7"/>
<circle cx="157.959" cy="63.8042" r="1" fill="#FF4AD7"/>
<circle cx="175.959" cy="63.8042" r="1" fill="#FF4AD7"/>
<circle cx="193.959" cy="63.8042" r="1" fill="#FF4AD7"/>
<circle cx="211.959" cy="63.8042" r="1" fill="#FF4AD7"/>
<circle cx="229.959" cy="63.8042" r="1" fill="#FF4AD7"/>
<circle cx="247.959" cy="63.8042" r="1" fill="#FF4AD7"/>
<circle cx="265.959" cy="63.8042" r="1" fill="#FF4AD7"/>
<circle cx="283.959" cy="63.8042" r="1" fill="#FF4AD7"/>
<circle cx="157.959" cy="99.8042" r="1" fill="#FF4AD7"/>
<circle cx="175.959" cy="99.8042" r="1" fill="#FF4AD7"/>
<circle cx="193.959" cy="99.8042" r="1" fill="#FF4AD7"/>
<circle cx="211.959" cy="99.8042" r="1" fill="#FF4AD7"/>
<circle cx="229.959" cy="99.8042" r="1" fill="#FF4AD7"/>
<circle cx="247.959" cy="99.8042" r="1" fill="#FF4AD7"/>
<circle cx="265.959" cy="99.8042" r="1" fill="#FF4AD7"/>
<circle cx="283.959" cy="99.8042" r="1" fill="#FF4AD7"/>
<circle cx="157.959" cy="135.804" r="1" fill="#FF4AD7"/>
<circle cx="175.959" cy="135.804" r="1" fill="#FF4AD7"/>
<circle cx="193.959" cy="135.804" r="1" fill="#FF4AD7"/>
<circle cx="211.959" cy="135.804" r="1" fill="#FF4AD7"/>
<circle cx="229.959" cy="135.804" r="1" fill="#FF4AD7"/>
<circle cx="247.959" cy="135.804" r="1" fill="#FF4AD7"/>
<circle cx="265.959" cy="135.804" r="1" fill="#FF4AD7"/>
<circle cx="283.959" cy="135.804" r="1" fill="#FF4AD7"/>
<circle cx="157.959" cy="171.804" r="1" fill="#FF4AD7"/>
<circle cx="175.959" cy="171.804" r="1" fill="#FF4AD7"/>
<circle cx="193.959" cy="171.804" r="1" fill="#FF4AD7"/>
<circle cx="211.959" cy="171.804" r="1" fill="#FF4AD7"/>
<circle cx="229.959" cy="171.804" r="1" fill="#FF4AD7"/>
<circle cx="247.959" cy="171.804" r="1" fill="#FF4AD7"/>
<circle cx="265.959" cy="171.804" r="1" fill="#FF4AD7"/>
<circle cx="283.959" cy="171.804" r="1" fill="#FF4AD7"/>
</g>
<defs>
<linearGradient id="paint0_linear_62_4633" x1="122.11" y1="2.04004" x2="147.567" y2="182.2" gradientUnits="userSpaceOnUse">
<stop stop-color="#9F17F2"/>
<stop offset="1" stop-color="#FF4AD7"/>
</linearGradient>
</defs>
</svg>
