<svg width="301" height="201" viewBox="0 0 301 201" fill="none" xmlns="http://www.w3.org/2000/svg">
<mask id="mask0_62_4844" style="mask-type:alpha" maskUnits="userSpaceOnUse" x="0" y="0" width="301" height="201">
<rect x="0.77832" y="0.804199" width="300" height="200" fill="#877655"/>
</mask>
<g mask="url(#mask0_62_4844)">
<rect x="0.77832" y="0.804199" width="300" height="200" fill="#FF912B"/>
<path d="M194.378 120.654C149.947 165.086 373.79 158.647 232.371 181.865C90.9524 205.083 -8.09424 228.645 -8.09424 228.645V-5.79281H296.089C302.617 -6.22798 314.105 1.64864 307.839 36.6364C307.839 36.6364 194.378 36.6364 140.08 47.9852C85.7823 59.3339 238.81 76.2226 194.378 120.654Z" fill="url(#paint0_linear_62_4844)"/>
<circle cx="25.4987" cy="31.2936" r="49.7101" fill="url(#paint1_linear_62_4844)"/>
<circle cx="96.917" cy="1.8042" r="1" fill="#FECC39"/>
<circle cx="114.917" cy="1.8042" r="1" fill="#FECC39"/>
<circle cx="132.917" cy="1.8042" r="1" fill="#FECC39"/>
<circle cx="150.917" cy="1.8042" r="1" fill="#FECC39"/>
<circle cx="168.917" cy="1.8042" r="1" fill="#FECC39"/>
<circle cx="186.917" cy="1.8042" r="1" fill="#FECC39"/>
<circle cx="204.917" cy="1.8042" r="1" fill="#FECC39"/>
<circle cx="222.917" cy="1.8042" r="1" fill="#FECC39"/>
<circle cx="96.917" cy="37.8042" r="1" fill="#FECC39"/>
<circle cx="114.917" cy="37.8042" r="1" fill="#FECC39"/>
<circle cx="132.917" cy="37.8042" r="1" fill="#FECC39"/>
<circle cx="150.917" cy="37.8042" r="1" fill="#FECC39"/>
<circle cx="168.917" cy="37.8042" r="1" fill="#FECC39"/>
<circle cx="186.917" cy="37.8042" r="1" fill="#FECC39"/>
<circle cx="204.917" cy="37.8042" r="1" fill="#FECC39"/>
<circle cx="96.917" cy="73.8042" r="1" fill="#FECC39"/>
<circle cx="222.917" cy="37.8042" r="1" fill="#FECC39"/>
<circle cx="114.917" cy="73.8042" r="1" fill="#FECC39"/>
<circle cx="132.917" cy="73.8042" r="1" fill="#FECC39"/>
<circle cx="150.917" cy="73.8042" r="1" fill="#FECC39"/>
<circle cx="168.917" cy="73.8042" r="1" fill="#FECC39"/>
<circle cx="186.917" cy="73.8042" r="1" fill="#FECC39"/>
<circle cx="204.917" cy="73.8042" r="1" fill="#FECC39"/>
<circle cx="222.917" cy="73.8042" r="1" fill="#FECC39"/>
<circle cx="96.917" cy="109.804" r="1" fill="#FECC39"/>
<circle cx="114.917" cy="109.804" r="1" fill="#FECC39"/>
<circle cx="132.917" cy="109.804" r="1" fill="#FECC39"/>
<circle cx="150.917" cy="109.804" r="1" fill="#FECC39"/>
<circle cx="168.917" cy="109.804" r="1" fill="#FECC39"/>
<circle cx="186.917" cy="109.804" r="1" fill="#FECC39"/>
<circle cx="204.917" cy="109.804" r="1" fill="#FECC39"/>
<circle cx="222.917" cy="109.804" r="1" fill="#FECC39"/>
<circle cx="96.917" cy="145.804" r="1" fill="#FECC39"/>
<circle cx="114.917" cy="145.804" r="1" fill="#FECC39"/>
<circle cx="132.917" cy="145.804" r="1" fill="#FECC39"/>
<circle cx="150.917" cy="145.804" r="1" fill="#FECC39"/>
<circle cx="168.917" cy="145.804" r="1" fill="#FECC39"/>
<circle cx="186.917" cy="145.804" r="1" fill="#FECC39"/>
<circle cx="204.917" cy="145.804" r="1" fill="#FECC39"/>
<circle cx="222.917" cy="145.804" r="1" fill="#FECC39"/>
<circle cx="96.917" cy="181.804" r="1" fill="#FECC39"/>
<circle cx="114.917" cy="181.804" r="1" fill="#FECC39"/>
<circle cx="132.917" cy="181.804" r="1" fill="#FECC39"/>
<circle cx="150.917" cy="181.804" r="1" fill="#FECC39"/>
<circle cx="168.917" cy="181.804" r="1" fill="#FECC39"/>
<circle cx="186.917" cy="181.804" r="1" fill="#FECC39"/>
<circle cx="204.917" cy="181.804" r="1" fill="#FECC39"/>
<circle cx="222.917" cy="181.804" r="1" fill="#FECC39"/>
<circle cx="96.917" cy="19.8042" r="1" fill="#FECC39"/>
<circle cx="114.917" cy="19.8042" r="1" fill="#FECC39"/>
<circle cx="132.917" cy="19.8042" r="1" fill="#FECC39"/>
<circle cx="150.917" cy="19.8042" r="1" fill="#FECC39"/>
<circle cx="168.917" cy="19.8042" r="1" fill="#FECC39"/>
<circle cx="186.917" cy="19.8042" r="1" fill="#FECC39"/>
<circle cx="204.917" cy="19.8042" r="1" fill="#FECC39"/>
<circle cx="222.917" cy="19.8042" r="1" fill="#FECC39"/>
<circle cx="96.917" cy="55.8042" r="1" fill="#FECC39"/>
<circle cx="114.917" cy="55.8042" r="1" fill="#FECC39"/>
<circle cx="132.917" cy="55.8042" r="1" fill="#FECC39"/>
<circle cx="150.917" cy="55.8042" r="1" fill="#FECC39"/>
<circle cx="168.917" cy="55.8042" r="1" fill="#FECC39"/>
<circle cx="186.917" cy="55.8042" r="1" fill="#FECC39"/>
<circle cx="204.917" cy="55.8042" r="1" fill="#FECC39"/>
<circle cx="222.917" cy="55.8042" r="1" fill="#FECC39"/>
<circle cx="96.917" cy="91.8042" r="1" fill="#FECC39"/>
<circle cx="114.917" cy="91.8042" r="1" fill="#FECC39"/>
<circle cx="132.917" cy="91.8042" r="1" fill="#FECC39"/>
<circle cx="150.917" cy="91.8042" r="1" fill="#FECC39"/>
<circle cx="168.917" cy="91.8042" r="1" fill="#FECC39"/>
<circle cx="186.917" cy="91.8042" r="1" fill="#FECC39"/>
<circle cx="204.917" cy="91.8042" r="1" fill="#FECC39"/>
<circle cx="222.917" cy="91.8042" r="1" fill="#FECC39"/>
<circle cx="96.917" cy="127.804" r="1" fill="#FECC39"/>
<circle cx="114.917" cy="127.804" r="1" fill="#FECC39"/>
<circle cx="132.917" cy="127.804" r="1" fill="#FECC39"/>
<circle cx="150.917" cy="127.804" r="1" fill="#FECC39"/>
<circle cx="168.917" cy="127.804" r="1" fill="#FECC39"/>
<circle cx="186.917" cy="127.804" r="1" fill="#FECC39"/>
<circle cx="204.917" cy="127.804" r="1" fill="#FECC39"/>
<circle cx="222.917" cy="127.804" r="1" fill="#FECC39"/>
<circle cx="96.917" cy="163.804" r="1" fill="#FECC39"/>
<circle cx="114.917" cy="163.804" r="1" fill="#FECC39"/>
<circle cx="132.917" cy="163.804" r="1" fill="#FECC39"/>
<circle cx="150.917" cy="163.804" r="1" fill="#FECC39"/>
<circle cx="168.917" cy="163.804" r="1" fill="#FECC39"/>
<circle cx="186.917" cy="163.804" r="1" fill="#FECC39"/>
<circle cx="204.917" cy="163.804" r="1" fill="#FECC39"/>
<circle cx="222.917" cy="163.804" r="1" fill="#FECC39"/>
<circle cx="96.917" cy="199.804" r="1" fill="#FECC39"/>
<circle cx="114.917" cy="199.804" r="1" fill="#FECC39"/>
<circle cx="132.917" cy="199.804" r="1" fill="#FECC39"/>
<circle cx="150.917" cy="199.804" r="1" fill="#FECC39"/>
<circle cx="168.917" cy="199.804" r="1" fill="#FECC39"/>
<circle cx="186.917" cy="199.804" r="1" fill="#FECC39"/>
<circle cx="204.917" cy="199.804" r="1" fill="#FECC39"/>
<circle cx="222.917" cy="199.804" r="1" fill="#FECC39"/>
</g>
<defs>
<linearGradient id="paint0_linear_62_4844" x1="119.193" y1="2.04004" x2="144.651" y2="182.2" gradientUnits="userSpaceOnUse">
<stop stop-color="#FF1010"/>
<stop offset="1" stop-color="#19868D"/>
</linearGradient>
<linearGradient id="paint1_linear_62_4844" x1="48.5087" y1="13.9787" x2="25.4987" y2="81.0037" gradientUnits="userSpaceOnUse">
<stop stop-color="#19868D"/>
<stop offset="1" stop-color="#19868D" stop-opacity="0"/>
</linearGradient>
</defs>
</svg>
