<svg width="15" height="15" viewBox="0 0 15 15" fill="none" xmlns="http://www.w3.org/2000/svg">
<path fill-rule="evenodd" clip-rule="evenodd" d="M13.9708 5.05419C14.3198 4.76586 14.3689 4.24926 14.0806 3.90032C12.7806 2.32708 10.4192 1.41522 7.9653 1.2915C5.4854 1.16646 2.7426 1.83363 0.607107 3.62912C0.260647 3.92042 0.21593 4.43742 0.507229 4.78388C0.798527 5.13034 1.31553 5.17506 1.66199 4.88376C3.42005 3.40561 5.73074 2.82009 7.88275 2.92859C10.0608 3.03841 11.9096 3.84635 12.8169 4.94442C13.1053 5.29336 13.6219 5.34251 13.9708 5.05419ZM0.47756 9.86549C0.765041 9.51586 1.28152 9.46547 1.63116 9.75295C5.17485 12.6667 10.2162 12.1459 12.9316 9.76929C13.2722 9.47117 13.79 9.50562 14.0881 9.84623C14.3863 10.1868 14.3518 10.7046 14.0112 11.0027C10.7265 13.8777 4.78805 14.4708 0.590099 11.0191C0.240465 10.7316 0.19008 10.2151 0.47756 9.86549ZM9.86226 5.99316C9.86226 7.12148 9.05006 7.17041 8.71557 7.17041C8.38107 7.17041 8.10991 6.37659 8.10991 6.04209C8.10991 5.70759 8.11439 4.8886 8.44889 4.8886C8.78338 4.8886 9.86226 5.65867 9.86226 5.99316ZM10.2329 7.27259C10.2329 8.81414 8.98323 10.0638 7.44168 10.0638C5.90012 10.0638 4.65045 8.81414 4.65045 7.27259C4.65045 5.73104 5.90012 4.48136 7.44168 4.48136C8.98323 4.48136 10.2329 5.73104 10.2329 7.27259Z" fill="#405166"/>
</svg>
